<svg width="123" height="123" viewBox="0 0 123 123" fill="none" xmlns="http://www.w3.org/2000/svg">
<path d="M61 115C90.8234 115 115 90.8234 115 61C115 31.1766 90.8234 7 61 7C31.1766 7 7 31.1766 7 61C7 90.8234 31.1766 115 61 115Z" stroke="#E2C68E" stroke-width="5"/>
<g filter="url(#filter0_d_18_2)">
<path d="M47.5845 37.8182V80H38.6662V37.8182H47.5845ZM69.0101 92.5227C66.1678 92.5227 63.7305 92.1314 61.6983 91.3487C59.6799 90.5798 58.0733 89.5294 56.8787 88.1974C55.6841 86.8655 54.9083 85.3688 54.5513 83.7074L62.6664 82.6158C62.9135 83.2474 63.3049 83.8378 63.8404 84.3871C64.3759 84.9363 65.083 85.3757 65.9618 85.7053C66.8543 86.0485 67.9391 86.2202 69.2161 86.2202C71.1247 86.2202 72.6969 85.7533 73.9327 84.8196C75.1822 83.8996 75.807 82.3549 75.807 80.1854V74.3977H75.4363C75.0518 75.2765 74.4751 76.1072 73.7061 76.8899C72.9372 77.6726 71.9486 78.3111 70.7402 78.8054C69.5319 79.2997 68.0901 79.5469 66.415 79.5469C64.0395 79.5469 61.8768 78.9976 59.927 77.8991C57.9909 76.7869 56.4462 75.0911 55.2928 72.8118C54.1531 70.5187 53.5833 67.6214 53.5833 64.12C53.5833 60.5362 54.1668 57.5428 55.334 55.1399C56.5011 52.737 58.0527 50.9382 59.9888 49.7436C61.9386 48.549 64.0738 47.9517 66.3944 47.9517C68.1657 47.9517 69.6486 48.2538 70.8432 48.858C72.0378 49.4484 72.999 50.1899 73.7267 51.0824C74.4682 51.9612 75.0381 52.8262 75.4363 53.6776H75.7658V48.3636H84.4782V80.3089C84.4782 83.0002 83.8191 85.2521 82.5009 87.0646C81.1827 88.8771 79.3565 90.2365 77.0222 91.1428C74.7016 92.0627 72.031 92.5227 69.0101 92.5227ZM69.1955 72.956C70.6098 72.956 71.8044 72.6058 72.7793 71.9055C73.7679 71.1915 74.5231 70.1754 75.0449 68.8572C75.5804 67.5253 75.8482 65.9325 75.8482 64.0788C75.8482 62.2251 75.5873 60.6186 75.0655 59.2592C74.5437 57.8861 73.7885 56.822 72.7999 56.0668C71.8113 55.3116 70.6098 54.9339 69.1955 54.9339C67.7537 54.9339 66.5385 55.3253 65.5499 56.108C64.5613 56.8769 63.8129 57.9479 63.3049 59.321C62.7968 60.6941 62.5428 62.2801 62.5428 64.0788C62.5428 65.9051 62.7968 67.4841 63.3049 68.8161C63.8266 70.1342 64.575 71.1572 65.5499 71.8849C66.5385 72.599 67.7537 72.956 69.1955 72.956Z" fill="#E2C68E"/>
<path d="M47.5845 37.8182H48.5845V36.8182H47.5845V37.8182ZM47.5845 80V81H48.5845V80H47.5845ZM38.6662 80H37.6662V81H38.6662V80ZM38.6662 37.8182V36.8182H37.6662V37.8182H38.6662ZM46.5845 37.8182V80H48.5845V37.8182H46.5845ZM47.5845 79H38.6662V81H47.5845V79ZM39.6662 80V37.8182H37.6662V80H39.6662ZM38.6662 38.8182H47.5845V36.8182H38.6662V38.8182ZM61.6983 91.3487L62.0577 90.4155L62.0543 90.4142L61.6983 91.3487ZM56.8787 88.1974L56.1343 88.8651L56.1343 88.8651L56.8787 88.1974ZM54.5513 83.7074L54.418 82.7163L53.3465 82.8604L53.5736 83.9175L54.5513 83.7074ZM62.6664 82.6158L63.5976 82.2514L63.3114 81.52L62.5331 81.6247L62.6664 82.6158ZM63.8404 84.3871L64.5564 83.689L64.5564 83.689L63.8404 84.3871ZM65.9618 85.7053L66.3208 84.7719L66.3129 84.7689L65.9618 85.7053ZM73.9327 84.8196L73.3398 84.0143L73.3299 84.0217L73.9327 84.8196ZM75.807 74.3977H76.807V73.3977H75.807V74.3977ZM75.4363 74.3977V73.3977H74.7822L74.5201 73.9969L75.4363 74.3977ZM73.7061 76.8899L74.4195 77.5907L74.4195 77.5907L73.7061 76.8899ZM59.927 77.8991L59.4289 78.7663L59.4362 78.7704L59.927 77.8991ZM55.2928 72.8118L54.3973 73.2569L54.4005 73.2633L55.2928 72.8118ZM55.334 55.1399L54.4345 54.703L54.4345 54.703L55.334 55.1399ZM59.9888 49.7436L59.4664 48.8909L59.4637 48.8926L59.9888 49.7436ZM70.8432 48.858L70.3919 49.7504L70.4001 49.7544L70.8432 48.858ZM73.7267 51.0824L72.9517 51.7143L72.957 51.7208L72.9624 51.7273L73.7267 51.0824ZM75.4363 53.6776L74.5304 54.1012L74.8 54.6776H75.4363V53.6776ZM75.7658 53.6776V54.6776H76.7658V53.6776H75.7658ZM75.7658 48.3636V47.3636H74.7658V48.3636H75.7658ZM84.4782 48.3636H85.4782V47.3636H84.4782V48.3636ZM82.5009 87.0646L81.6922 86.4765L81.6922 86.4765L82.5009 87.0646ZM77.0222 91.1428L76.6603 90.2105L76.6537 90.2131L77.0222 91.1428ZM72.7793 71.9055L73.3627 72.7177L73.3648 72.7162L72.7793 71.9055ZM75.0449 68.8572L74.1171 68.4842L74.1151 68.4892L75.0449 68.8572ZM75.0655 59.2592L74.1307 59.6145L74.1319 59.6176L75.0655 59.2592ZM65.5499 56.108L66.1639 56.8973L66.1706 56.892L65.5499 56.108ZM63.3049 59.321L64.2427 59.668L64.2427 59.668L63.3049 59.321ZM63.3049 68.8161L62.3705 69.1725L62.3751 69.1841L63.3049 68.8161ZM65.5499 71.8849L64.9517 72.6863L64.958 72.691L64.9644 72.6956L65.5499 71.8849ZM69.0101 91.5227C66.2551 91.5227 63.9462 91.1428 62.0577 90.4155L61.3389 92.2819C63.5149 93.1199 66.0805 93.5227 69.0101 93.5227V91.5227ZM62.0543 90.4142C60.1542 89.6904 58.6915 88.7209 57.6232 87.5298L56.1343 88.8651C57.4551 90.3378 59.2055 91.4692 61.3423 92.2832L62.0543 90.4142ZM57.6232 87.5298C56.5384 86.3204 55.8475 84.9794 55.529 83.4973L53.5736 83.9175C53.9692 85.7583 54.8298 87.4107 56.1343 88.8651L57.6232 87.5298ZM54.6846 84.6985L62.7997 83.6068L62.5331 81.6247L54.418 82.7163L54.6846 84.6985ZM61.7351 82.9802C62.037 83.7516 62.5077 84.4527 63.1244 85.0852L64.5564 83.689C64.102 83.223 63.7901 82.7432 63.5976 82.2514L61.7351 82.9802ZM63.1244 85.0852C63.7828 85.7605 64.6244 86.2717 65.6107 86.6416L66.3129 84.7689C65.5417 84.4797 64.9689 84.1121 64.5564 83.689L63.1244 85.0852ZM65.6028 86.6386C66.6412 87.038 67.8551 87.2202 69.2161 87.2202V85.2202C68.0231 85.2202 67.0675 85.0591 66.3208 84.7719L65.6028 86.6386ZM69.2161 87.2202C71.2907 87.2202 73.0891 86.7104 74.5355 85.6175L73.3299 84.0217C72.3048 84.7963 70.9587 85.2202 69.2161 85.2202V87.2202ZM74.5256 85.6249C76.1234 84.4485 76.807 82.5374 76.807 80.1854H74.807C74.807 82.1723 74.2411 83.3508 73.3398 84.0143L74.5256 85.6249ZM76.807 80.1854V74.3977H74.807V80.1854H76.807ZM75.807 73.3977H75.4363V75.3977H75.807V73.3977ZM74.5201 73.9969C74.1909 74.7494 73.6886 75.4809 72.9928 76.1891L74.4195 77.5907C75.2616 76.7336 75.9127 75.8037 76.3524 74.7985L74.5201 73.9969ZM72.9928 76.1891C72.3353 76.8583 71.4677 77.4273 70.3616 77.8799L71.1189 79.7309C72.4294 79.1948 73.5391 78.4868 74.4195 77.5907L72.9928 76.1891ZM70.3616 77.8799C69.3022 78.3132 67.9955 78.5469 66.415 78.5469V80.5469C68.1848 80.5469 69.7616 80.2862 71.1189 79.7309L70.3616 77.8799ZM66.415 78.5469C64.2005 78.5469 62.2086 78.0368 60.4179 77.0279L59.4362 78.7704C61.5451 79.9585 63.8785 80.5469 66.415 80.5469V78.5469ZM60.4251 77.032C58.6816 76.0304 57.2635 74.4914 56.1851 72.3603L54.4005 73.2633C55.6289 75.6909 57.3003 77.5434 59.4289 78.7663L60.4251 77.032ZM56.1883 72.3667C55.1378 70.2531 54.5833 67.5208 54.5833 64.12H52.5833C52.5833 67.7221 53.1684 70.7843 54.3973 73.2569L56.1883 72.3667ZM54.5833 64.12C54.5833 60.6384 55.1511 57.8053 56.2335 55.5768L54.4345 54.703C53.1826 57.2804 52.5833 60.4341 52.5833 64.12H54.5833ZM56.2335 55.5768C57.3324 53.3144 58.7658 51.6732 60.5139 50.5946L59.4637 48.8926C57.3396 50.2032 55.6699 52.1595 54.4345 54.703L56.2335 55.5768ZM60.5112 50.5963C62.3014 49.4995 64.2553 48.9517 66.3944 48.9517V46.9517C63.8923 46.9517 61.5759 47.5985 59.4664 48.8909L60.5112 50.5963ZM66.3944 48.9517C68.0575 48.9517 69.375 49.236 70.3919 49.7503L71.2945 47.9656C69.9223 47.2716 68.2738 46.9517 66.3944 46.9517V48.9517ZM70.4001 49.7544C71.4865 50.2914 72.3276 50.9488 72.9517 51.7143L74.5018 50.4504C73.6704 49.4309 72.5892 48.6054 71.2863 47.9615L70.4001 49.7544ZM72.9624 51.7273C73.6594 52.5532 74.1767 53.3449 74.5304 54.1012L76.3421 53.2539C75.8994 52.3075 75.2771 51.3691 74.491 50.4375L72.9624 51.7273ZM75.4363 54.6776H75.7658V52.6776H75.4363V54.6776ZM76.7658 53.6776V48.3636H74.7658V53.6776H76.7658ZM75.7658 49.3636H84.4782V47.3636H75.7658V49.3636ZM83.4782 48.3636V80.3089H85.4782V48.3636H83.4782ZM83.4782 80.3089C83.4782 82.8324 82.8627 84.867 81.6922 86.4765L83.3096 87.6528C84.7755 85.6373 85.4782 83.1681 85.4782 80.3089H83.4782ZM81.6922 86.4765C80.4998 88.116 78.8374 89.3653 76.6603 90.2105L77.3841 92.075C79.8756 91.1077 81.8657 89.6383 83.3096 87.6528L81.6922 86.4765ZM76.6537 90.2131C74.4722 91.078 71.9306 91.5227 69.0101 91.5227V93.5227C72.1313 93.5227 74.9311 93.0475 77.3907 92.0724L76.6537 90.2131ZM69.1955 73.956C70.7807 73.956 72.189 73.5608 73.3627 72.7177L72.1959 71.0934C71.4197 71.6509 70.4389 71.956 69.1955 71.956V73.956ZM73.3648 72.7162C74.5318 71.8733 75.3944 70.6914 75.9747 69.2253L74.1151 68.4892C73.6519 69.6594 73.004 70.5097 72.1938 71.0949L73.3648 72.7162ZM75.9727 69.2303C76.5676 67.7508 76.8482 66.0248 76.8482 64.0788H74.8482C74.8482 65.8402 74.5933 67.2999 74.1171 68.4842L75.9727 69.2303ZM76.8482 64.0788C76.8482 62.1346 76.575 60.4011 75.9991 58.9009L74.1319 59.6176C74.5996 60.8361 74.8482 62.3157 74.8482 64.0788H76.8482ZM76.0003 58.904C75.4245 57.3886 74.5686 56.1594 73.4069 55.2721L72.1929 56.8614C73.0085 57.4845 73.663 58.3836 74.1307 59.6145L76.0003 58.904ZM73.4069 55.2721C72.2205 54.3658 70.7977 53.9339 69.1955 53.9339V55.9339C70.4219 55.9339 71.402 56.2573 72.1929 56.8614L73.4069 55.2721ZM69.1955 53.9339C67.5624 53.9339 66.1194 54.3817 64.9292 55.3239L66.1706 56.892C66.9577 56.2689 67.9451 55.9339 69.1955 55.9339V53.9339ZM64.936 55.3186C63.7769 56.2201 62.9286 57.4562 62.367 58.974L64.2427 59.668C64.6972 58.4397 65.3456 57.5337 66.1638 56.8973L64.936 55.3186ZM62.367 58.974C61.8097 60.4803 61.5428 62.1878 61.5428 64.0788H63.5428C63.5428 62.3724 63.784 60.9079 64.2427 59.668L62.367 58.974ZM61.5428 64.0788C61.5428 65.9942 61.8088 67.6997 62.3705 69.1724L64.2392 68.4597C63.7849 67.2685 63.5428 65.8159 63.5428 64.0788H61.5428ZM62.3751 69.1841C62.9536 70.6457 63.8051 71.8304 64.9517 72.6863L66.1481 71.0836C65.3449 70.484 64.6997 69.6228 64.2347 68.448L62.3751 69.1841ZM64.9644 72.6956C66.1528 73.5539 67.5829 73.956 69.1955 73.956V71.956C67.9245 71.956 66.9242 71.644 66.1354 71.0743L64.9644 72.6956Z" fill="black"/>
</g>
<defs>
<filter id="filter0_d_18_2" x="34.6662" y="37.8182" width="53.812" height="62.7045" filterUnits="userSpaceOnUse" color-interpolation-filters="sRGB">
<feFlood flood-opacity="0" result="BackgroundImageFix"/>
<feColorMatrix in="SourceAlpha" type="matrix" values="0 0 0 0 0 0 0 0 0 0 0 0 0 0 0 0 0 0 127 0" result="hardAlpha"/>
<feOffset dy="4"/>
<feGaussianBlur stdDeviation="2"/>
<feComposite in2="hardAlpha" operator="out"/>
<feColorMatrix type="matrix" values="0 0 0 0 0 0 0 0 0 0 0 0 0 0 0 0 0 0 0.25 0"/>
<feBlend mode="normal" in2="BackgroundImageFix" result="effect1_dropShadow_18_2"/>
<feBlend mode="normal" in="SourceGraphic" in2="effect1_dropShadow_18_2" result="shape"/>
</filter>
</defs>
</svg>
