<svg width="304" height="260" viewBox="0 0 304 260" fill="none" xmlns="http://www.w3.org/2000/svg">
<g filter="url(#filter0_d_25_128)">
<path d="M4.01492 173.367L163.515 245.097L152.015 251.597L4.01492 173.367Z" fill="white"/>
<path d="M299.515 173.663L140.515 245.097L152.015 251.597L299.515 173.663Z" fill="white"/>
<path d="M3.99984 80.23L163.5 8.5L152 1.9998L3.99984 80.23Z" fill="white"/>
<path d="M299.5 79.9335L140.5 8.5L152 2L299.5 79.9335Z" fill="white"/>
<path d="M4 97.7603L9.55914 97.7603L24.7204 144.114L24.7204 155.702L4 97.7603Z" fill="white"/>
<path d="M44.4033 97.5247L38.8441 97.5247L24.4185 143.374L24.7204 155.702L44.4033 97.5247Z" fill="white"/>
<path d="M12.0861 97.7603H17.1398L24.7205 122.449V137.06L12.0861 97.7603Z" fill="white"/>
<path d="M46.4043 97.7449H51L32.1064 155.745H27L46.4043 97.7449Z" fill="white"/>
<path d="M65 97.7966H70V149.797H65V97.7966Z" fill="white"/>
<rect x="65" y="97.7966" width="21" height="4" fill="white"/>
<rect x="65" y="151.797" width="26" height="4" fill="white"/>
<rect x="65" y="97.7966" width="23" height="4" fill="white"/>
<rect x="66" y="118.797" width="25" height="4" fill="white"/>
<rect x="65" y="145.797" width="20" height="4" fill="white"/>
<path d="M72 104.797L77 108.615V116.797H72V104.797Z" fill="white"/>
<path d="M72 125.797L77 130.297V143.797H72V125.797Z" fill="white"/>
<path d="M73 103.797H82V107.797H78.625L73 103.797Z" fill="white"/>
<path d="M73 124.797H85V128.797H77.1739L73 124.797Z" fill="white"/>
<path d="M95 107.797H100V119.797L95 117.547V107.797Z" fill="white"/>
<path d="M87.7764 97.8198C89.388 97.8297 90.9823 98.0959 92.4682 98.6033C93.9541 99.1107 95.3025 99.8494 96.4365 100.777C97.5704 101.705 98.4677 102.803 99.0771 104.01C99.6865 105.217 99.996 106.508 99.9881 107.811L95.033 107.78C95.0377 107.004 94.8531 106.234 94.4898 105.514C94.1265 104.795 93.5915 104.14 92.9154 103.587C92.2393 103.034 91.4353 102.593 90.5494 102.291C89.6634 101.988 88.7129 101.829 87.752 101.824L87.7764 97.8198Z" fill="white"/>
<path d="M81.0899 103.87C82.6621 103.88 84.2174 104.129 85.6671 104.604C87.1167 105.079 88.4323 105.77 89.5387 106.637C90.6452 107.505 91.5208 108.533 92.1156 109.661C92.7103 110.79 93.0074 112.579 93 113.797L88 113.796C88.0043 113.097 87.7437 111.79 87.4019 111.142C87.0601 110.493 86.5569 109.903 85.9211 109.404C85.2853 108.905 84.5292 108.508 83.6962 108.235C82.8631 107.962 81.9693 107.819 81.0658 107.814L81.0899 103.87Z" fill="white"/>
<path d="M84.6082 124.799C86.2444 124.809 88.3169 124.791 89.8256 125.297C91.3342 125.802 92.8486 126.373 94 127.297C95.1514 128.22 95.8812 129.34 96.5 130.541C97.1188 131.743 97.0155 133.45 97.0076 134.747L91.9758 134.716C91.9805 133.943 91.793 133.177 91.4241 132.461C91.0552 131.744 90.512 131.092 89.8256 130.541C89.1392 129.991 88.323 129.552 87.4236 129.251C86.5243 128.95 85.5593 128.792 84.5839 128.786L84.6082 124.799Z" fill="white"/>
<path d="M90.9844 118.292C92.5781 118.302 94.1541 118.659 95.6223 119.343C97.0906 120.028 98.4224 121.026 99.5417 122.281C100.661 123.536 101.546 125.024 102.146 126.658C102.746 128.293 103.049 130.042 103.038 131.808L98.9666 131.783C98.9738 130.61 98.7723 129.447 98.3736 128.361C97.975 127.275 97.387 126.286 96.6432 125.453C95.8994 124.619 95.0144 123.955 94.0388 123.5C93.0631 123.045 92.0159 122.808 90.9569 122.802L90.9844 118.292Z" fill="white"/>
<path d="M98.5 153.297C99.804 152.158 101.272 150.288 101.978 148.708C102.684 147.129 103.038 145.415 103.016 143.686L99.0018 143.737C99.0164 144.886 98.7809 146.025 98.3118 147.074C97.8426 148.124 97.1509 149.059 96.2844 149.815L98.5 153.297Z" fill="white"/>
<path d="M90.7111 155.782C93.0058 155.847 95.2708 155.251 97.236 154.066L95.1609 150.635C93.8551 151.422 92.3499 151.818 90.8251 151.774L90.7111 155.782Z" fill="white"/>
<path d="M84.6358 149.781C89 149.797 89.5 149.797 91 149.297C92.5 148.797 93.3458 148.22 94.5 147.297C95.5 146.297 96 145.797 96.5 144.797C97 143.797 97 142.297 97 139.867L92.0215 139.867C92.0262 140.64 92 141.578 92 142.297C92 143.297 91.6881 143.746 91 144.297C90.3119 144.847 89.5 145.297 88 145.797C87 145.797 85.5893 145.789 84.6115 145.795L84.6358 149.781Z" fill="white"/>
<path d="M93 113.296C93 115.472 92.8001 118.106 91 119.797C89.1999 121.488 87.7989 122.343 85 122.797L82.0557 118.835C83.7243 118.564 85.9269 118.305 87 117.297C88.0731 116.289 87.9519 114.593 87.9519 113.296H93Z" fill="white"/>
<rect x="92" y="133.797" width="5" height="7" fill="white"/>
<rect x="88" y="112.797" width="5" height="1" fill="white"/>
<rect x="99" y="131.797" width="4" height="12" fill="white"/>
<path d="M114 97.7603L119.5 97.7603L134.5 144.114L134.5 155.702L114 97.7603Z" fill="white"/>
<path d="M153.973 97.5247L148.473 97.5247L134.201 143.374L134.5 155.702L153.973 97.5247Z" fill="white"/>
<path d="M122 97.7603H127L134.5 122.449V137.06L122 97.7603Z" fill="white"/>
<path d="M155.596 97.7449H160L141.894 155.745H137L155.596 97.7449Z" fill="white"/>
<path d="M245.085 112.524C245.085 110.321 244.606 108.139 243.677 106.103C242.747 104.067 241.384 102.218 239.666 100.66C237.948 99.1014 235.909 97.8654 233.665 97.0221C231.42 96.1789 229.014 95.7449 226.585 95.7449C224.155 95.7449 221.75 96.1789 219.505 97.0221C217.261 97.8654 215.221 99.1014 213.503 100.66C211.786 102.218 210.423 104.067 209.493 106.103C208.563 108.139 208.085 110.321 208.085 112.525L211.085 112.016C211.085 110.209 211.823 108.601 212.585 106.931C213.347 105.262 214.45 104.074 215.859 102.796C217.268 101.518 218.94 100.505 220.78 99.8137C222.62 99.1222 224.593 98.7664 226.585 98.7664C228.577 98.7664 230.549 99.1222 232.39 99.8137C234.23 100.505 235.902 101.518 237.311 102.796C238.719 104.074 239.823 105.262 240.585 106.931C241.347 108.601 242.085 110.718 242.085 112.524H245.085Z" fill="white"/>
<path d="M240.085 115.575C240.085 113.756 239.742 111.954 239.077 110.276C238.412 108.597 237.438 107.075 236.21 105.798C234.983 104.52 233.528 103.513 231.929 102.835C230.33 102.157 228.619 101.822 226.897 101.848C225.174 101.874 223.473 102.262 221.893 102.989C220.314 103.716 218.887 104.767 217.695 106.081C216.503 107.395 215.571 108.947 214.952 110.645C214.333 112.343 214.04 114.154 214.09 115.973L217.085 116.084C217.046 114.681 217.247 113.082 217.724 111.771C218.202 110.461 218.921 109.264 219.84 108.25C220.76 107.236 221.861 106.425 223.08 105.865C224.298 105.304 225.61 105.005 226.94 104.985C228.269 104.964 229.589 105.223 230.822 105.746C232.056 106.269 233.179 107.046 234.125 108.032C235.072 109.017 235.824 110.192 236.337 111.487C236.85 112.782 237.085 113.663 237.085 115.067L240.085 115.575Z" fill="white"/>
<path d="M234.078 116.397C234.119 115.445 233.972 114.494 233.645 113.6C233.318 112.707 232.818 111.89 232.175 111.197C231.531 110.504 230.758 109.949 229.899 109.566C229.041 109.183 228.116 108.979 227.179 108.966C226.242 108.953 225.312 109.132 224.444 109.491C223.576 109.851 222.788 110.384 222.126 111.059C221.464 111.735 220.943 112.538 220.593 113.422C220.242 114.306 220.07 115.253 220.086 116.206L223.085 116.084C223.076 115.542 223.197 115.074 223.397 114.572C223.596 114.069 223.892 113.613 224.268 113.229C224.644 112.846 225.091 112.543 225.584 112.339C226.077 112.134 226.606 112.033 227.138 112.04C227.671 112.047 228.196 112.163 228.684 112.381C229.171 112.599 229.611 112.914 229.976 113.307C230.342 113.701 230.626 114.166 230.812 114.673C230.998 115.18 231.108 115.543 231.085 116.084L234.078 116.397Z" fill="white"/>
<path d="M232.585 123.203C233.585 122.186 234.085 120.109 234.085 118.118L231.085 117.609C231.085 119.135 230.76 120.441 230.085 121.169L232.585 123.203Z" fill="white"/>
<path d="M239.085 125.236C240.085 124.22 240.085 123.668 240.085 121.677L237.085 121.169C237.085 122.694 236.26 123.492 235.585 124.22L239.085 125.236Z" fill="white"/>
<path d="M243.085 130.321C244.085 129.304 245.085 126.719 245.085 124.728H242.085C242.085 126.253 241.76 127.051 241.085 127.779L243.085 130.321Z" fill="white"/>
<path d="M231.085 116.084H234.085V118.118H231.085V116.084Z" fill="white"/>
<path d="M207.085 142.525L230.085 121.169L232.585 123.203L209.272 144.767L207.085 142.525Z" fill="white"/>
<path d="M207.085 142.525L230.085 121.169L232.585 123.203L209.272 144.767L207.085 142.525Z" fill="white"/>
<path d="M207.512 149.856L237.008 122.691L239.085 125.236L209.652 152.26L207.512 149.856Z" fill="white"/>
<path d="M207.512 149.856L237.008 122.691L239.085 125.236L209.652 152.26L207.512 149.856Z" fill="white"/>
<path d="M207.512 149.856L237.008 122.691L239.085 125.236L209.652 152.26L207.512 149.856Z" fill="white"/>
<path d="M207.512 149.856L237.008 122.691L239.085 125.236L209.652 152.26L207.512 149.856Z" fill="white"/>
<path d="M217.585 148.903L241.585 127.27L243.085 130.321L223.824 147.881L217.585 148.903Z" fill="white"/>
<path d="M217.585 148.903L241.585 127.27L243.085 130.321L223.824 147.881L217.585 148.903Z" fill="white"/>
<rect x="207.085" y="142.524" width="3" height="13.2203" fill="white"/>
<rect x="207.085" y="152.694" width="39" height="3.05084" fill="white"/>
<rect x="243.085" y="142.524" width="3" height="13.2203" fill="white"/>
<rect x="208.085" y="112.016" width="3" height="8.13558" fill="white"/>
<rect x="214.085" y="115.067" width="3" height="5.08474" fill="white"/>
<rect x="220.085" y="116.084" width="3" height="4.06779" fill="white"/>
<rect x="208.085" y="117.101" width="15" height="3.05084" fill="white"/>
<rect x="237.085" y="115.067" width="3" height="7.11863" fill="white"/>
<rect x="242.085" y="112.016" width="3" height="13.2203" fill="white"/>
<path d="M228.085 140.482L246.085 139.955V143.006H225.085L228.085 140.482Z" fill="white"/>
<path d="M220.585 146.271H246.085V149.322H217.085L220.585 146.271Z" fill="white"/>
<path d="M260 135.745C260.229 140.292 261.791 144.331 264.406 147.857C267.021 151.382 270.583 153.9 274.58 155.049C278.577 156.198 282.801 155.918 286.644 154.25C290.488 152.581 293.751 149.61 295.964 145.765C298.177 141.92 299.226 137.4 298.959 132.855C298.692 128.311 297.123 123.977 294.479 120.479C291.834 116.981 288.25 114.499 284.244 113.391C280.238 112.283 276.016 112.606 272.187 114.314L273.348 117.478C276.569 116.042 280.121 115.77 283.491 116.702C286.861 117.634 289.876 119.722 292.101 122.664C294.326 125.607 295.645 129.253 295.87 133.076C296.095 136.899 295.212 140.702 293.35 143.936C291.489 147.171 288.743 149.67 285.51 151.074C282.277 152.478 278.723 152.713 275.361 151.746C271.999 150.78 269.002 148.661 266.802 145.696C264.602 142.73 263.313 139.071 263.121 135.246L260 135.745Z" fill="white"/>
<path d="M265.871 135.055C266.04 138.247 267.196 141.29 269.16 143.711C271.124 146.132 273.787 147.796 276.733 148.444C279.68 149.092 282.745 148.687 285.453 147.293C288.161 145.899 290.359 143.594 291.706 140.736C293.053 137.878 293.473 134.627 292.901 131.489C292.329 128.351 290.797 125.501 288.543 123.384C286.29 121.266 283.44 119.999 280.438 119.779C277.436 119.56 274.45 120.4 271.944 122.169L273.513 124.676C275.499 123.274 277.865 122.608 280.244 122.782C282.622 122.956 284.88 123.961 286.666 125.639C288.452 127.317 289.666 129.574 290.119 132.061C290.572 134.548 290.239 137.124 289.172 139.388C288.105 141.653 286.363 143.48 284.217 144.584C282.072 145.689 279.642 146.01 277.308 145.496C274.973 144.983 272.863 143.664 271.307 141.746C269.75 139.827 268.834 137.416 268.701 134.887L265.871 135.055Z" fill="white"/>
<path d="M271.712 134.72C271.817 136.768 272.599 138.706 273.912 140.175C275.226 141.645 276.983 142.547 278.859 142.716C280.735 142.885 282.604 142.308 284.12 141.093C285.637 139.878 286.699 138.106 287.111 136.104C287.523 134.103 287.256 132.006 286.361 130.202C285.466 128.397 284.002 127.007 282.239 126.286C280.476 125.566 278.534 125.564 276.771 126.282C275.007 127 273.541 128.389 272.644 130.192L274.625 131.745C275.187 130.615 276.685 129.705 277.79 129.256C278.895 128.806 280.112 128.807 281.216 129.258C282.321 129.709 283.238 130.581 283.799 131.711C284.36 132.842 284.527 134.156 284.269 135.41C284.011 136.664 283.345 137.775 282.395 138.536C281.445 139.297 280.274 139.659 279.098 139.553C277.923 139.447 276.822 138.882 275.999 137.961C275.176 137.04 274.691 136.028 274.625 134.745L271.712 134.72Z" fill="white"/>
<rect x="271.7" y="108.745" width="2.925" height="23" fill="white"/>
<path d="M260 134.745H274.625V137.745H260.488L260 135.745V134.745Z" fill="white"/>
<rect x="260.975" y="128.745" width="13.65" height="2.99999" fill="white"/>
<rect x="265.85" y="102.745" width="2.925" height="26.9999" fill="white"/>
<rect x="260" y="97.7451" width="2.925" height="33.9999" fill="white"/>
<rect x="271.7" y="107.745" width="24.375" height="2.99999" fill="white"/>
<rect x="265.85" y="101.745" width="30.225" height="2.99999" fill="white"/>
<rect x="260" y="95.7449" width="36.075" height="2.99999" fill="white"/>
<rect x="293.15" y="95.7449" width="2.925" height="15" fill="white"/>
<rect width="9.0782" height="2.96273" transform="matrix(0.698101 0.715999 -0.698101 0.715999 268.852 102.416)" fill="white"/>
<rect width="7.50697" height="2.96273" transform="matrix(0.698101 0.715999 -0.698101 0.715999 287.786 143.121)" fill="white"/>
</g>
<defs>
<filter id="filter0_d_25_128" x="-0.000183105" y="1.99976" width="303.515" height="257.597" filterUnits="userSpaceOnUse" color-interpolation-filters="sRGB">
<feFlood flood-opacity="0" result="BackgroundImageFix"/>
<feColorMatrix in="SourceAlpha" type="matrix" values="0 0 0 0 0 0 0 0 0 0 0 0 0 0 0 0 0 0 127 0" result="hardAlpha"/>
<feOffset dy="4"/>
<feGaussianBlur stdDeviation="2"/>
<feComposite in2="hardAlpha" operator="out"/>
<feColorMatrix type="matrix" values="0 0 0 0 0 0 0 0 0 0 0 0 0 0 0 0 0 0 0.25 0"/>
<feBlend mode="normal" in2="BackgroundImageFix" result="effect1_dropShadow_25_128"/>
<feBlend mode="normal" in="SourceGraphic" in2="effect1_dropShadow_25_128" result="shape"/>
</filter>
</defs>
</svg>
