<svg width="123" height="123" viewBox="0 0 123 123" fill="none" xmlns="http://www.w3.org/2000/svg">
<path d="M61 115C90.8234 115 115 90.8234 115 61C115 31.1766 90.8234 7 61 7C31.1766 7 7 31.1766 7 61C7 90.8234 31.1766 115 61 115Z" stroke="white" stroke-width="5"/>
<g filter="url(#filter0_d_101_2)">
<path d="M53.3288 48.3636V54.9545H34.277V48.3636H53.3288ZM38.6023 40.7841H47.3764V70.2784C47.3764 71.0885 47.5 71.7202 47.7472 72.1733C47.9943 72.6127 48.3376 72.9216 48.777 73.1001C49.2301 73.2786 49.7519 73.3679 50.3423 73.3679C50.7543 73.3679 51.1662 73.3336 51.5781 73.2649C51.9901 73.1825 52.3059 73.1207 52.5256 73.0795L53.9055 79.6087C53.4661 79.746 52.8482 79.9039 52.0518 80.0824C51.2554 80.2746 50.2874 80.3913 49.1477 80.4325C47.0331 80.5149 45.1795 80.2334 43.5866 79.5881C42.0076 78.9427 40.7786 77.9403 39.8999 76.581C39.0211 75.2216 38.5885 73.5052 38.6023 71.4318V40.7841ZM72.9574 92.5227C70.1151 92.5227 67.6778 92.1314 65.6456 91.3487C63.6271 90.5798 62.0206 89.5294 60.826 88.1974C59.6314 86.8655 58.8556 85.3688 58.4986 83.7074L66.6136 82.6158C66.8608 83.2474 67.2521 83.8378 67.7876 84.3871C68.3232 84.9363 69.0303 85.3757 69.9091 85.7053C70.8016 86.0485 71.8864 86.2202 73.1634 86.2202C75.072 86.2202 76.6442 85.7533 77.88 84.8196C79.1295 83.8996 79.7543 82.3549 79.7543 80.1854V74.3977H79.3835C78.9991 75.2765 78.4223 76.1072 77.6534 76.8899C76.8845 77.6726 75.8958 78.3111 74.6875 78.8054C73.4792 79.2997 72.0374 79.5469 70.3622 79.5469C67.9867 79.5469 65.8241 78.9976 63.8743 77.8991C61.9382 76.7869 60.3935 75.0911 59.2401 72.8118C58.1004 70.5187 57.5305 67.6214 57.5305 64.12C57.5305 60.5362 58.1141 57.5428 59.2812 55.1399C60.4484 52.737 62 50.9382 63.9361 49.7436C65.8859 48.549 68.0211 47.9517 70.3416 47.9517C72.1129 47.9517 73.5959 48.2538 74.7905 48.858C75.9851 49.4484 76.9463 50.1899 77.674 51.0824C78.4155 51.9612 78.9853 52.8262 79.3835 53.6776H79.7131V48.3636H88.4254V80.3089C88.4254 83.0002 87.7663 85.2521 86.4482 87.0646C85.13 88.8771 83.3037 90.2365 80.9695 91.1428C78.6489 92.0627 75.9782 92.5227 72.9574 92.5227ZM73.1428 72.956C74.5571 72.956 75.7517 72.6058 76.7266 71.9055C77.7152 71.1915 78.4704 70.1754 78.9922 68.8572C79.5277 67.5253 79.7955 65.9325 79.7955 64.0788C79.7955 62.2251 79.5346 60.6186 79.0128 59.2592C78.491 57.8861 77.7358 56.822 76.7472 56.0668C75.7585 55.3116 74.5571 54.9339 73.1428 54.9339C71.701 54.9339 70.4858 55.3253 69.4972 56.108C68.5085 56.8769 67.7602 57.9479 67.2521 59.321C66.7441 60.6941 66.4901 62.2801 66.4901 64.0788C66.4901 65.9051 66.7441 67.4841 67.2521 68.8161C67.7739 70.1342 68.5223 71.1572 69.4972 71.8849C70.4858 72.599 71.701 72.956 73.1428 72.956Z" fill="white"/>
<path d="M53.3288 48.3636H54.3288V47.3636H53.3288V48.3636ZM53.3288 54.9545V55.9545H54.3288V54.9545H53.3288ZM34.277 54.9545H33.277V55.9545H34.277V54.9545ZM34.277 48.3636V47.3636H33.277V48.3636H34.277ZM38.6023 40.7841V39.7841H37.6023V40.7841H38.6023ZM47.3764 40.7841H48.3764V39.7841H47.3764V40.7841ZM47.7472 72.1733L46.8692 72.6522L46.8756 72.6636L47.7472 72.1733ZM48.777 73.1001L48.4006 74.0267L48.4105 74.0306L48.777 73.1001ZM51.5781 73.2649L51.7425 74.2513L51.7584 74.2487L51.7742 74.2455L51.5781 73.2649ZM52.5256 73.0795L53.504 72.8728L53.3019 71.9166L52.3413 72.0967L52.5256 73.0795ZM53.9055 79.6087L54.2038 80.5631L55.072 80.2918L54.8839 79.4019L53.9055 79.6087ZM52.0518 80.0824L51.8331 79.1066L51.8252 79.1084L51.8172 79.1103L52.0518 80.0824ZM49.1477 80.4325L49.1116 79.4332L49.1088 79.4333L49.1477 80.4325ZM43.5866 79.5881L43.2083 80.5137L43.2111 80.5149L43.5866 79.5881ZM39.8999 76.581L40.7397 76.0381L40.7397 76.0381L39.8999 76.581ZM38.6023 71.4318L39.6023 71.4384V71.4318H38.6023ZM52.3288 48.3636V54.9545H54.3288V48.3636H52.3288ZM53.3288 53.9545H34.277V55.9545H53.3288V53.9545ZM35.277 54.9545V48.3636H33.277V54.9545H35.277ZM34.277 49.3636H53.3288V47.3636H34.277V49.3636ZM38.6023 41.7841H47.3764V39.7841H38.6023V41.7841ZM46.3764 40.7841V70.2784H48.3764V40.7841H46.3764ZM46.3764 70.2784C46.3764 71.1696 46.5089 71.9915 46.8693 72.6521L48.6251 71.6944C48.4911 71.4488 48.3764 71.0075 48.3764 70.2784H46.3764ZM46.8756 72.6636C47.2262 73.2869 47.7378 73.7573 48.4006 74.0266L49.1534 72.1737C48.9374 72.0859 48.7624 71.9385 48.6187 71.683L46.8756 72.6636ZM48.4105 74.0306C49.0022 74.2637 49.6524 74.3679 50.3423 74.3679V72.3679C49.8514 72.3679 49.458 72.2936 49.1435 72.1697L48.4105 74.0306ZM50.3423 74.3679C50.8101 74.3679 51.277 74.3289 51.7425 74.2513L51.4137 72.2785C51.0554 72.3382 50.6984 72.3679 50.3423 72.3679V74.3679ZM51.7742 74.2455C52.185 74.1633 52.4961 74.1025 52.7099 74.0624L52.3413 72.0967C52.1156 72.139 51.7951 72.2017 51.382 72.2843L51.7742 74.2455ZM51.5472 73.2863L52.9272 79.8155L54.8839 79.4019L53.504 72.8728L51.5472 73.2863ZM53.6073 78.6542C53.2067 78.7794 52.6198 78.9303 51.8331 79.1066L52.2706 81.0582C53.0767 80.8775 53.7256 80.7126 54.2038 80.5631L53.6073 78.6542ZM51.8172 79.1103C51.1056 79.2821 50.2083 79.3935 49.1116 79.4332L49.1838 81.4319C50.3665 81.3891 51.4053 81.2672 52.2865 81.0545L51.8172 79.1103ZM49.1088 79.4333C47.104 79.5114 45.3968 79.2425 43.9622 78.6613L43.2111 80.5149C44.9621 81.2243 46.9623 81.5184 49.1867 81.4318L49.1088 79.4333ZM43.965 78.6624C42.5645 78.09 41.5012 77.2161 40.7397 76.0381L39.0601 77.1239C40.0561 78.6646 41.4507 79.7954 43.2083 80.5137L43.965 78.6624ZM40.7397 76.0381C39.9927 74.8827 39.5895 73.3713 39.6023 71.4384L37.6023 71.4252C37.5876 73.6391 38.0494 75.5605 39.0601 77.1239L40.7397 76.0381ZM39.6023 71.4318V40.7841H37.6023V71.4318H39.6023ZM65.6456 91.3487L66.005 90.4155L66.0016 90.4142L65.6456 91.3487ZM60.826 88.1974L60.0816 88.8651L60.0816 88.8651L60.826 88.1974ZM58.4986 83.7074L58.3653 82.7163L57.2938 82.8604L57.5209 83.9175L58.4986 83.7074ZM66.6136 82.6158L67.5449 82.2514L67.2587 81.52L66.4803 81.6247L66.6136 82.6158ZM67.7876 84.3871L68.5036 83.689L68.5036 83.689L67.7876 84.3871ZM69.9091 85.7053L70.2681 84.7719L70.2602 84.7689L69.9091 85.7053ZM77.88 84.8196L77.287 84.0143L77.2771 84.0217L77.88 84.8196ZM79.7543 74.3977H80.7543V73.3977H79.7543V74.3977ZM79.3835 74.3977V73.3977H78.7295L78.4674 73.9969L79.3835 74.3977ZM77.6534 76.8899L78.3667 77.5907L78.3667 77.5907L77.6534 76.8899ZM63.8743 77.8991L63.3761 78.7663L63.3834 78.7704L63.8743 77.8991ZM59.2401 72.8118L58.3445 73.2569L58.3478 73.2633L59.2401 72.8118ZM59.2812 55.1399L58.3817 54.703L58.3817 54.703L59.2812 55.1399ZM63.9361 49.7436L63.4137 48.8909L63.411 48.8926L63.9361 49.7436ZM74.7905 48.858L74.3392 49.7504L74.3474 49.7544L74.7905 48.858ZM77.674 51.0824L76.899 51.7143L76.9043 51.7208L76.9097 51.7273L77.674 51.0824ZM79.3835 53.6776L78.4777 54.1012L78.7473 54.6776H79.3835V53.6776ZM79.7131 53.6776V54.6776H80.7131V53.6776H79.7131ZM79.7131 48.3636V47.3636H78.7131V48.3636H79.7131ZM88.4254 48.3636H89.4254V47.3636H88.4254V48.3636ZM86.4482 87.0646L85.6394 86.4765L85.6394 86.4765L86.4482 87.0646ZM80.9695 91.1428L80.6075 90.2105L80.6009 90.2131L80.9695 91.1428ZM76.7266 71.9055L77.31 72.7177L77.3121 72.7162L76.7266 71.9055ZM78.9922 68.8572L78.0644 68.4842L78.0624 68.4892L78.9922 68.8572ZM79.0128 59.2592L78.078 59.6145L78.0792 59.6176L79.0128 59.2592ZM69.4972 56.108L70.1111 56.8973L70.1179 56.892L69.4972 56.108ZM67.2521 59.321L68.19 59.668L68.19 59.668L67.2521 59.321ZM67.2521 68.8161L66.3177 69.1725L66.3223 69.1841L67.2521 68.8161ZM69.4972 71.8849L68.899 72.6863L68.9053 72.691L68.9117 72.6956L69.4972 71.8849ZM72.9574 91.5227C70.2024 91.5227 67.8934 91.1428 66.005 90.4155L65.2862 92.2819C67.4621 93.1199 70.0277 93.5227 72.9574 93.5227V91.5227ZM66.0016 90.4142C64.1015 89.6904 62.6388 88.7209 61.5704 87.5298L60.0816 88.8651C61.4024 90.3378 63.1528 91.4692 65.2896 92.2832L66.0016 90.4142ZM61.5704 87.5298C60.4857 86.3204 59.7947 84.9794 59.4763 83.4973L57.5209 83.9175C57.9164 85.7583 58.7771 87.4107 60.0816 88.8651L61.5704 87.5298ZM58.6319 84.6985L66.747 83.6068L66.4803 81.6247L58.3653 82.7163L58.6319 84.6985ZM65.6824 82.9802C65.9843 83.7516 66.455 84.4527 67.0716 85.0852L68.5036 83.689C68.0493 83.223 67.7373 82.7432 67.5449 82.2514L65.6824 82.9802ZM67.0716 85.0852C67.7301 85.7605 68.5717 86.2717 69.558 86.6416L70.2602 84.7689C69.4889 84.4797 68.9162 84.1121 68.5036 83.689L67.0716 85.0852ZM69.5501 86.6386C70.5885 87.038 71.8024 87.2202 73.1634 87.2202V85.2202C71.9704 85.2202 71.0147 85.0591 70.2681 84.7719L69.5501 86.6386ZM73.1634 87.2202C75.238 87.2202 77.0363 86.7104 78.4828 85.6175L77.2771 84.0217C76.252 84.7963 74.906 85.2202 73.1634 85.2202V87.2202ZM78.4729 85.6249C80.0707 84.4485 80.7543 82.5374 80.7543 80.1854H78.7543C78.7543 82.1723 78.1883 83.3508 77.2871 84.0143L78.4729 85.6249ZM80.7543 80.1854V74.3977H78.7543V80.1854H80.7543ZM79.7543 73.3977H79.3835V75.3977H79.7543V73.3977ZM78.4674 73.9969C78.1382 74.7494 77.6358 75.4809 76.9401 76.1891L78.3667 77.5907C79.2089 76.7336 79.8599 75.8037 80.2997 74.7985L78.4674 73.9969ZM76.9401 76.1891C76.2826 76.8583 75.415 77.4273 74.3089 77.8799L75.0661 79.7309C76.3767 79.1948 77.4864 78.4868 78.3667 77.5907L76.9401 76.1891ZM74.3089 77.8799C73.2495 78.3132 71.9427 78.5469 70.3622 78.5469V80.5469C72.1321 80.5469 73.7089 80.2862 75.0661 79.7309L74.3089 77.8799ZM70.3622 78.5469C68.1478 78.5469 66.1559 78.0368 64.3651 77.0279L63.3834 78.7704C65.4923 79.9585 67.8257 80.5469 70.3622 80.5469V78.5469ZM64.3724 77.032C62.6289 76.0304 61.2107 74.4914 60.1323 72.3603L58.3478 73.2633C59.5762 75.6909 61.2476 77.5434 63.3762 78.7663L64.3724 77.032ZM60.1356 72.3667C59.0851 70.2531 58.5305 67.5208 58.5305 64.12H56.5305C56.5305 67.7221 57.1157 70.7843 58.3446 73.2569L60.1356 72.3667ZM58.5305 64.12C58.5305 60.6384 59.0983 57.8053 60.1808 55.5768L58.3817 54.703C57.1299 57.2804 56.5305 60.4341 56.5305 64.12H58.5305ZM60.1808 55.5768C61.2796 53.3144 62.7131 51.6732 64.4612 50.5946L63.411 48.8926C61.2869 50.2032 59.6171 52.1595 58.3817 54.703L60.1808 55.5768ZM64.4585 50.5963C66.2486 49.4995 68.2026 48.9517 70.3416 48.9517V46.9517C67.8396 46.9517 65.5231 47.5985 63.4137 48.8909L64.4585 50.5963ZM70.3416 48.9517C72.0047 48.9517 73.3222 49.236 74.3392 49.7503L75.2418 47.9656C73.8695 47.2716 72.2211 46.9517 70.3416 46.9517V48.9517ZM74.3474 49.7544C75.4338 50.2914 76.2748 50.9488 76.899 51.7143L78.449 50.4504C77.6177 49.4309 76.5364 48.6054 75.2336 47.9615L74.3474 49.7544ZM76.9097 51.7273C77.6066 52.5532 78.124 53.3449 78.4777 54.1012L80.2893 53.2539C79.8467 52.3075 79.2243 51.3691 78.4383 50.4375L76.9097 51.7273ZM79.3835 54.6776H79.7131V52.6776H79.3835V54.6776ZM80.7131 53.6776V48.3636H78.7131V53.6776H80.7131ZM79.7131 49.3636H88.4254V47.3636H79.7131V49.3636ZM87.4254 48.3636V80.3089H89.4254V48.3636H87.4254ZM87.4254 80.3089C87.4254 82.8324 86.8099 84.867 85.6394 86.4765L87.2569 87.6528C88.7227 85.6373 89.4254 83.1681 89.4254 80.3089H87.4254ZM85.6394 86.4765C84.447 88.116 82.7846 89.3653 80.6075 90.2105L81.3314 92.075C83.8228 91.1077 85.8129 89.6383 87.2569 87.6528L85.6394 86.4765ZM80.6009 90.2131C78.4195 91.078 75.8779 91.5227 72.9574 91.5227V93.5227C76.0786 93.5227 78.8783 93.0475 81.338 92.0724L80.6009 90.2131ZM73.1428 73.956C74.728 73.956 76.1363 73.5608 77.31 72.7177L76.1432 71.0934C75.367 71.6509 74.3861 71.956 73.1428 71.956V73.956ZM77.3121 72.7162C78.4791 71.8733 79.3416 70.6914 79.922 69.2253L78.0624 68.4892C77.5992 69.6594 76.9513 70.5097 76.1411 71.0949L77.3121 72.7162ZM79.92 69.2303C80.5149 67.7508 80.7955 66.0248 80.7955 64.0788H78.7955C78.7955 65.8402 78.5405 67.2999 78.0644 68.4842L79.92 69.2303ZM80.7955 64.0788C80.7955 62.1346 80.5222 60.4011 79.9464 58.9009L78.0792 59.6176C78.5469 60.8361 78.7955 62.3157 78.7955 64.0788H80.7955ZM79.9476 58.904C79.3717 57.3886 78.5158 56.1594 77.3542 55.2721L76.1401 56.8614C76.9558 57.4845 77.6103 58.3836 78.078 59.6145L79.9476 58.904ZM77.3542 55.2721C76.1678 54.3658 74.745 53.9339 73.1428 53.9339V55.9339C74.3691 55.9339 75.3493 56.2573 76.1401 56.8614L77.3542 55.2721ZM73.1428 53.9339C71.5096 53.9339 70.0667 54.3817 68.8765 55.3239L70.1179 56.892C70.9049 56.2689 71.8924 55.9339 73.1428 55.9339V53.9339ZM68.8832 55.3186C67.7242 56.2201 66.8759 57.4562 66.3143 58.974L68.19 59.668C68.6445 58.4397 69.2929 57.5337 70.1111 56.8973L68.8832 55.3186ZM66.3143 58.974C65.7569 60.4803 65.4901 62.1878 65.4901 64.0788H67.4901C67.4901 62.3724 67.7312 60.9079 68.19 59.668L66.3143 58.974ZM65.4901 64.0788C65.4901 65.9942 65.756 67.6997 66.3178 69.1724L68.1865 68.4597C67.7321 67.2685 67.4901 65.8159 67.4901 64.0788H65.4901ZM66.3223 69.1841C66.9009 70.6457 67.7524 71.8304 68.899 72.6863L70.0954 71.0836C69.2921 70.484 68.6469 69.6228 68.1819 68.448L66.3223 69.1841ZM68.9117 72.6956C70.1001 73.5539 71.5302 73.956 73.1428 73.956V71.956C71.8718 71.956 70.8715 71.644 70.0827 71.0743L68.9117 72.6956Z" fill="white"/>
</g>
<defs>
<filter id="filter0_d_101_2" x="30.277" y="40.7841" width="62.1484" height="59.7386" filterUnits="userSpaceOnUse" color-interpolation-filters="sRGB">
<feFlood flood-opacity="0" result="BackgroundImageFix"/>
<feColorMatrix in="SourceAlpha" type="matrix" values="0 0 0 0 0 0 0 0 0 0 0 0 0 0 0 0 0 0 127 0" result="hardAlpha"/>
<feOffset dy="4"/>
<feGaussianBlur stdDeviation="2"/>
<feComposite in2="hardAlpha" operator="out"/>
<feColorMatrix type="matrix" values="0 0 0 0 0 0 0 0 0 0 0 0 0 0 0 0 0 0 0.25 0"/>
<feBlend mode="normal" in2="BackgroundImageFix" result="effect1_dropShadow_101_2"/>
<feBlend mode="normal" in="SourceGraphic" in2="effect1_dropShadow_101_2" result="shape"/>
</filter>
</defs>
</svg>
