<svg width="123" height="123" viewBox="0 0 123 123" fill="none" xmlns="http://www.w3.org/2000/svg">
<path d="M61 115C90.8234 115 115 90.8234 115 61C115 31.1766 90.8234 7 61 7C31.1766 7 7 31.1766 7 61C7 90.8234 31.1766 115 61 115Z" stroke="white" stroke-width="5"/>
<g filter="url(#filter0_d_18_5)">
<path d="M59.9957 49.3636L48.9354 81H39.049L27.9886 49.3636H37.2571L43.8274 71.9993H44.157L50.7067 49.3636H59.9957ZM72.4361 71.8963L72.4567 61.3714H73.7337L83.8672 49.3636H93.9389L80.3246 65.2642H78.2443L72.4361 71.8963ZM64.4858 81V38.8182H73.2599V81H64.4858ZM84.2585 81L74.9489 67.2209L80.7983 61.0213L94.5362 81H84.2585Z" fill="white"/>
<path d="M59.9957 49.3636L60.9397 49.6937L61.4047 48.3636H59.9957V49.3636ZM48.9354 81V82H49.6451L49.8793 81.33L48.9354 81ZM39.049 81L38.105 81.33L38.3393 82H39.049V81ZM27.9886 49.3636V48.3636H26.5797L27.0447 49.6937L27.9886 49.3636ZM37.2571 49.3636L38.2175 49.0849L38.0081 48.3636H37.2571V49.3636ZM43.8274 71.9993L42.8671 72.278L43.0764 72.9993H43.8274V71.9993ZM44.157 71.9993V72.9993H44.9086L45.1176 72.2772L44.157 71.9993ZM50.7067 49.3636V48.3636H49.955L49.7461 49.0857L50.7067 49.3636ZM59.0518 49.0336L47.9914 80.67L49.8793 81.33L60.9397 49.6937L59.0518 49.0336ZM48.9354 80H39.049V82H48.9354V80ZM39.993 80.67L28.9326 49.0336L27.0447 49.6937L38.105 81.33L39.993 80.67ZM27.9886 50.3636H37.2571V48.3636H27.9886V50.3636ZM36.2967 49.6424L42.8671 72.278L44.7878 71.7205L38.2175 49.0849L36.2967 49.6424ZM43.8274 72.9993H44.157V70.9993H43.8274V72.9993ZM45.1176 72.2772L51.6673 49.6416L49.7461 49.0857L43.1964 71.7213L45.1176 72.2772ZM50.7067 50.3636H59.9957V48.3636H50.7067V50.3636ZM72.4361 71.8963L71.4361 71.8943L71.4309 74.5619L73.1884 72.5551L72.4361 71.8963ZM72.4567 61.3714V60.3714H71.4586L71.4567 61.3695L72.4567 61.3714ZM73.7337 61.3714V62.3714H74.1983L74.4979 62.0164L73.7337 61.3714ZM83.8672 49.3636V48.3636H83.4026L83.103 48.7187L83.8672 49.3636ZM93.9389 49.3636L94.6985 50.014L96.1116 48.3636H93.9389V49.3636ZM80.3246 65.2642V66.2642H80.7848L81.0842 65.9146L80.3246 65.2642ZM78.2443 65.2642V64.2642H77.7908L77.492 64.6054L78.2443 65.2642ZM64.4858 81H63.4858V82H64.4858V81ZM64.4858 38.8182V37.8182H63.4858V38.8182H64.4858ZM73.2599 38.8182H74.2599V37.8182H73.2599V38.8182ZM73.2599 81V82H74.2599V81H73.2599ZM84.2585 81L83.4299 81.5598L83.7273 82H84.2585V81ZM74.9489 67.2209L74.2215 66.5346L73.6719 67.1171L74.1203 67.7807L74.9489 67.2209ZM80.7983 61.0213L81.6223 60.4547L80.9207 59.4344L80.0709 60.335L80.7983 61.0213ZM94.5362 81V82H96.4375L95.3602 80.4334L94.5362 81ZM73.4361 71.8983L73.4567 61.3734L71.4567 61.3695L71.4361 71.8943L73.4361 71.8983ZM72.4567 62.3714H73.7337V60.3714H72.4567V62.3714ZM74.4979 62.0164L84.6314 50.0086L83.103 48.7187L72.9694 60.7265L74.4979 62.0164ZM83.8672 50.3636H93.9389V48.3636H83.8672V50.3636ZM93.1793 48.7132L79.565 64.6138L81.0842 65.9146L94.6985 50.014L93.1793 48.7132ZM80.3246 64.2642H78.2443V66.2642H80.3246V64.2642ZM77.492 64.6054L71.6838 71.2375L73.1884 72.5551L78.9966 65.923L77.492 64.6054ZM65.4858 81V38.8182H63.4858V81H65.4858ZM64.4858 39.8182H73.2599V37.8182H64.4858V39.8182ZM72.2599 38.8182V81H74.2599V38.8182H72.2599ZM73.2599 80H64.4858V82H73.2599V80ZM85.0871 80.4402L75.7775 66.661L74.1203 67.7807L83.4299 81.5598L85.0871 80.4402ZM75.6762 67.9072L81.5256 61.7076L80.0709 60.335L74.2215 66.5346L75.6762 67.9072ZM79.9743 61.5879L93.7122 81.5666L95.3602 80.4334L81.6223 60.4547L79.9743 61.5879ZM94.5362 80H84.2585V82H94.5362V80Z" fill="white"/>
</g>
<defs>
<filter id="filter0_d_18_5" x="23.9886" y="38.8182" width="74.5476" height="50.1818" filterUnits="userSpaceOnUse" color-interpolation-filters="sRGB">
<feFlood flood-opacity="0" result="BackgroundImageFix"/>
<feColorMatrix in="SourceAlpha" type="matrix" values="0 0 0 0 0 0 0 0 0 0 0 0 0 0 0 0 0 0 127 0" result="hardAlpha"/>
<feOffset dy="4"/>
<feGaussianBlur stdDeviation="2"/>
<feComposite in2="hardAlpha" operator="out"/>
<feColorMatrix type="matrix" values="0 0 0 0 0 0 0 0 0 0 0 0 0 0 0 0 0 0 0.25 0"/>
<feBlend mode="normal" in2="BackgroundImageFix" result="effect1_dropShadow_18_5"/>
<feBlend mode="normal" in="SourceGraphic" in2="effect1_dropShadow_18_5" result="shape"/>
</filter>
</defs>
</svg>
