<svg width="123" height="123" viewBox="0 0 123 123" fill="none" xmlns="http://www.w3.org/2000/svg">
<path d="M61 115C90.8234 115 115 90.8234 115 61C115 31.1766 90.8234 7 61 7C31.1766 7 7 31.1766 7 61C7 90.8234 31.1766 115 61 115Z" stroke="#E2C68E" stroke-width="5"/>
<g filter="url(#filter0_d_18_37)">
<path d="M41.9183 91.8636C40.8061 91.8636 39.7625 91.7744 38.7876 91.5959C37.8265 91.4311 37.0301 91.2183 36.3984 90.9574L38.3757 84.4077C39.4055 84.7235 40.3324 84.8951 41.1562 84.9226C41.9938 84.95 42.7147 84.7578 43.3189 84.3459C43.9368 83.9339 44.438 83.2337 44.8224 82.245L45.3374 80.9062L33.9886 48.3636H43.2159L49.7656 71.5966H50.0952L56.7067 48.3636H65.9957L53.6996 83.419C53.1091 85.1217 52.3059 86.6046 51.2898 87.8679C50.2874 89.1449 49.0173 90.1267 47.4794 90.8132C45.9415 91.5135 44.0878 91.8636 41.9183 91.8636ZM87.3132 48.3636V54.9545H68.2614V48.3636H87.3132ZM72.5866 40.7841H81.3608V70.2784C81.3608 71.0885 81.4844 71.7202 81.7315 72.1733C81.9787 72.6127 82.322 72.9216 82.7614 73.1001C83.2145 73.2786 83.7363 73.3679 84.3267 73.3679C84.7386 73.3679 85.1506 73.3336 85.5625 73.2649C85.9744 73.1825 86.2902 73.1207 86.5099 73.0795L87.8899 79.6087C87.4505 79.746 86.8326 79.9039 86.0362 80.0824C85.2398 80.2746 84.2718 80.3913 83.1321 80.4325C81.0175 80.5149 79.1638 80.2334 77.571 79.5881C75.992 78.9427 74.763 77.9403 73.8842 76.581C73.0054 75.2216 72.5729 73.5052 72.5866 71.4318V40.7841Z" fill="#E2C68E"/>
<path d="M38.7876 91.5959L38.9678 90.6122L38.9566 90.6103L38.7876 91.5959ZM36.3984 90.9574L35.4411 90.6684L35.1793 91.5358L36.0167 91.8816L36.3984 90.9574ZM38.3757 84.4077L38.6689 83.4516L37.7087 83.1571L37.4184 84.1187L38.3757 84.4077ZM41.1562 84.9226L41.1229 85.922L41.1235 85.922L41.1562 84.9226ZM43.3189 84.3459L42.7642 83.5138L42.7556 83.5197L43.3189 84.3459ZM44.8224 82.245L45.7545 82.6075L45.7558 82.604L44.8224 82.245ZM45.3374 80.9062L46.2707 81.2652L46.4023 80.9231L46.2816 80.577L45.3374 80.9062ZM33.9886 48.3636V47.3636H32.5808L33.0444 48.6929L33.9886 48.3636ZM43.2159 48.3636L44.1784 48.0923L43.973 47.3636H43.2159V48.3636ZM49.7656 71.5966L48.8031 71.8679L49.0086 72.5966H49.7656V71.5966ZM50.0952 71.5966V72.5966H50.8503L51.057 71.8703L50.0952 71.5966ZM56.7067 48.3636V47.3636H55.9515L55.7449 48.0899L56.7067 48.3636ZM65.9957 48.3636L66.9394 48.6946L67.4062 47.3636H65.9957V48.3636ZM53.6996 83.419L52.7559 83.088L52.7548 83.0914L53.6996 83.419ZM51.2898 87.8679L50.5105 87.2411L50.5032 87.2504L51.2898 87.8679ZM47.4794 90.8132L47.0717 89.9L47.065 89.9031L47.4794 90.8132ZM41.9183 90.8636C40.8593 90.8636 39.8765 90.7786 38.9677 90.6122L38.6075 92.5795C39.6485 92.7701 40.7529 92.8636 41.9183 92.8636V90.8636ZM38.9566 90.6103C38.0402 90.4532 37.3212 90.2566 36.7802 90.0331L36.0167 91.8816C36.7389 92.18 37.6127 92.4091 38.6187 92.5815L38.9566 90.6103ZM37.3558 91.2464L39.333 84.6967L37.4184 84.1187L35.4411 90.6684L37.3558 91.2464ZM38.0825 85.3637C39.1725 85.698 40.1887 85.8909 41.1229 85.922L41.1896 83.9231C40.476 83.8994 39.6386 83.749 38.6689 83.4516L38.0825 85.3637ZM41.1235 85.922C42.1409 85.9554 43.0779 85.7205 43.8822 85.1721L42.7556 83.5197C42.3516 83.7951 41.8468 83.9447 41.189 83.9231L41.1235 85.922ZM43.8736 85.1779C44.7216 84.6126 45.3262 83.7088 45.7544 82.6075L43.8904 81.8826C43.5498 82.7585 43.152 83.2553 42.7642 83.5138L43.8736 85.1779ZM45.7558 82.604L46.2707 81.2652L44.404 80.5473L43.8891 81.886L45.7558 82.604ZM46.2816 80.577L34.9329 48.0343L33.0444 48.6929L44.3931 81.2355L46.2816 80.577ZM33.9886 49.3636H43.2159V47.3636H33.9886V49.3636ZM42.2534 48.635L48.8031 71.8679L50.7281 71.3253L44.1784 48.0923L42.2534 48.635ZM49.7656 72.5966H50.0952V70.5966H49.7656V72.5966ZM51.057 71.8703L57.6685 48.6373L55.7449 48.0899L49.1334 71.3229L51.057 71.8703ZM56.7067 49.3636H65.9957V47.3636H56.7067V49.3636ZM65.0521 48.0326L52.7559 83.088L54.6432 83.75L66.9394 48.6946L65.0521 48.0326ZM52.7548 83.0914C52.1978 84.6976 51.4471 86.0768 50.5106 87.2411L52.069 88.4947C53.1646 87.1325 54.0205 85.5458 54.6444 83.7467L52.7548 83.0914ZM50.5032 87.2504C49.605 88.3947 48.4669 89.2772 47.0718 89.9001L47.8871 91.7263C49.5677 90.9761 50.9698 89.8951 52.0764 88.4853L50.5032 87.2504ZM47.065 89.9031C45.6886 90.5299 43.9839 90.8636 41.9183 90.8636V92.8636C44.1917 92.8636 46.1944 92.4971 47.8938 91.7233L47.065 89.9031ZM87.3132 48.3636H88.3132V47.3636H87.3132V48.3636ZM87.3132 54.9545V55.9545H88.3132V54.9545H87.3132ZM68.2614 54.9545H67.2614V55.9545H68.2614V54.9545ZM68.2614 48.3636V47.3636H67.2614V48.3636H68.2614ZM72.5866 40.7841V39.7841H71.5866V40.7841H72.5866ZM81.3608 40.7841H82.3608V39.7841H81.3608V40.7841ZM81.7315 72.1733L80.8536 72.6522L80.86 72.6636L81.7315 72.1733ZM82.7614 73.1001L82.385 74.0267L82.3948 74.0306L82.7614 73.1001ZM85.5625 73.2649L85.7269 74.2513L85.7428 74.2487L85.7586 74.2455L85.5625 73.2649ZM86.5099 73.0795L87.4883 72.8728L87.2862 71.9166L86.3257 72.0967L86.5099 73.0795ZM87.8899 79.6087L88.1882 80.5631L89.0564 80.2918L88.8683 79.4019L87.8899 79.6087ZM86.0362 80.0824L85.8175 79.1066L85.8095 79.1084L85.8016 79.1103L86.0362 80.0824ZM83.1321 80.4325L83.096 79.4332L83.0932 79.4333L83.1321 80.4325ZM77.571 79.5881L77.1927 80.5137L77.1955 80.5149L77.571 79.5881ZM73.8842 76.581L74.724 76.0381L74.724 76.0381L73.8842 76.581ZM72.5866 71.4318L73.5866 71.4384V71.4318H72.5866ZM86.3132 48.3636V54.9545H88.3132V48.3636H86.3132ZM87.3132 53.9545H68.2614V55.9545H87.3132V53.9545ZM69.2614 54.9545V48.3636H67.2614V54.9545H69.2614ZM68.2614 49.3636H87.3132V47.3636H68.2614V49.3636ZM72.5866 41.7841H81.3608V39.7841H72.5866V41.7841ZM80.3608 40.7841V70.2784H82.3608V40.7841H80.3608ZM80.3608 70.2784C80.3608 71.1696 80.4933 71.9915 80.8536 72.6521L82.6094 71.6944C82.4755 71.4488 82.3608 71.0075 82.3608 70.2784H80.3608ZM80.86 72.6636C81.2106 73.2869 81.7222 73.7573 82.385 74.0266L83.1377 72.1737C82.9218 72.0859 82.7468 71.9385 82.6031 71.683L80.86 72.6636ZM82.3948 74.0306C82.9866 74.2637 83.6367 74.3679 84.3267 74.3679V72.3679C83.8358 72.3679 83.4424 72.2936 83.1279 72.1697L82.3948 74.0306ZM84.3267 74.3679C84.7945 74.3679 85.2614 74.3289 85.7269 74.2513L85.3981 72.2785C85.0397 72.3382 84.6828 72.3679 84.3267 72.3679V74.3679ZM85.7586 74.2455C86.1694 74.1633 86.4805 74.1025 86.6942 74.0624L86.3257 72.0967C86.1 72.139 85.7795 72.2017 85.3664 72.2843L85.7586 74.2455ZM85.5316 73.2863L86.9115 79.8155L88.8683 79.4019L87.4883 72.8728L85.5316 73.2863ZM87.5916 78.6542C87.1911 78.7794 86.6042 78.9303 85.8175 79.1066L86.2549 81.0582C87.0611 80.8775 87.71 80.7126 88.1882 80.5631L87.5916 78.6542ZM85.8016 79.1103C85.09 79.2821 84.1926 79.3935 83.096 79.4332L83.1682 81.4319C84.3509 81.3891 85.3896 81.2672 86.2709 81.0545L85.8016 79.1103ZM83.0932 79.4333C81.0883 79.5114 79.3812 79.2425 77.9465 78.6613L77.1955 80.5149C78.9465 81.2243 80.9467 81.5184 83.171 81.4318L83.0932 79.4333ZM77.9493 78.6624C76.5488 78.09 75.4856 77.2161 74.724 76.0381L73.0444 77.1239C74.0404 78.6646 75.4351 79.7954 77.1927 80.5137L77.9493 78.6624ZM74.724 76.0381C73.9771 74.8827 73.5738 73.3713 73.5866 71.4384L71.5867 71.4252C71.572 73.6391 72.0338 75.5605 73.0444 77.1239L74.724 76.0381ZM73.5866 71.4318V40.7841H71.5866V71.4318H73.5866Z" fill="black"/>
</g>
<defs>
<filter id="filter0_d_18_37" x="29.9886" y="40.7841" width="61.9013" height="59.0796" filterUnits="userSpaceOnUse" color-interpolation-filters="sRGB">
<feFlood flood-opacity="0" result="BackgroundImageFix"/>
<feColorMatrix in="SourceAlpha" type="matrix" values="0 0 0 0 0 0 0 0 0 0 0 0 0 0 0 0 0 0 127 0" result="hardAlpha"/>
<feOffset dy="4"/>
<feGaussianBlur stdDeviation="2"/>
<feComposite in2="hardAlpha" operator="out"/>
<feColorMatrix type="matrix" values="0 0 0 0 0 0 0 0 0 0 0 0 0 0 0 0 0 0 0.25 0"/>
<feBlend mode="normal" in2="BackgroundImageFix" result="effect1_dropShadow_18_37"/>
<feBlend mode="normal" in="SourceGraphic" in2="effect1_dropShadow_18_37" result="shape"/>
</filter>
</defs>
</svg>
