<svg width="1298" height="81" viewBox="0 0 1298 81" fill="none" xmlns="http://www.w3.org/2000/svg">
<line x1="0.960938" y1="8" x2="1295.89" y2="8" stroke="black" stroke-width="2"/>
<rect width="8" height="8" transform="matrix(0.70246 -0.711723 0.70246 0.711723 0 8.19238)" fill="black"/>
<rect width="8" height="8" transform="matrix(0.70246 -0.711723 0.70246 0.711723 1286.04 8.19238)" fill="black"/>
<rect width="11" height="11" transform="matrix(0.70246 -0.711723 0.70246 0.711723 29.7397 8.19238)" fill="black"/>
<rect width="11" height="11" transform="matrix(0.70246 -0.711723 0.70246 0.711723 1246.37 7.89941)" fill="black"/>
<line x1="107.505" y1="28.707" x2="1203.21" y2="28.707" stroke="black" stroke-width="2"/>
<rect width="8" height="8" transform="matrix(0.641003 -0.767538 0.641003 0.767538 106 28.8994)" fill="black"/>
<rect width="8" height="8" transform="matrix(0.641003 -0.767538 0.641003 0.767538 1194.19 28.8994)" fill="black"/>
<rect width="11" height="11" transform="matrix(0.641003 -0.767538 0.641003 0.767538 137 28.7456)" fill="black"/>
<rect width="11" height="11" transform="matrix(0.641003 -0.767538 0.641003 0.767538 1157 28.7456)" fill="black"/>
<path d="M572.367 52.9985C568.263 56.7299 556.131 59.0466 548.42 56.6129C540.709 54.1791 535.99 46.2935 538.836 40.2964C541.356 32.3114 559.232 29.9481 571.787 39.8235C529.777 19.0829 528.311 68.2992 572.367 52.9985Z" fill="black"/>
<path d="M588.751 49.5205C592.842 45.7744 604.965 43.4142 612.685 45.8203C620.405 48.2264 625.152 56.095 622.328 62.1023C619.837 70.0963 601.969 72.5237 589.378 62.6933C631.463 83.2832 632.753 34.0619 588.751 49.5205Z" fill="black"/>
<path d="M562.325 56.3473L598.645 46.2196" stroke="black" stroke-width="2"/>
<path d="M737.751 52.9985C741.856 56.7299 753.987 59.0466 761.698 56.6129C769.409 54.1791 774.129 46.2935 771.283 40.2964C768.763 32.3114 750.887 29.9481 738.331 39.8235C780.342 19.0829 781.808 68.2992 737.751 52.9985Z" fill="black"/>
<path d="M721.368 49.5205C717.276 45.7744 705.153 43.4142 697.434 45.8203C689.714 48.2264 684.966 56.095 687.791 62.1023C690.282 70.0963 708.149 72.5237 720.74 62.6933C678.655 83.2832 677.366 34.0619 721.368 49.5205Z" fill="black"/>
<path d="M747.794 56.3473L711.474 46.2196" stroke="black" stroke-width="2"/>
<rect x="633.414" y="57.033" width="30.5735" height="30.5735" rx="9" transform="rotate(-45 633.414 57.033)" stroke="black" stroke-width="2"/>
</svg>
